<?xml version="1.0" standalone="no"?>
<!DOCTYPE svg PUBLIC "-//W3C//DTD SVG 20010904//EN"
 "http://www.w3.org/TR/2001/REC-SVG-20010904/DTD/svg10.dtd">
<svg version="1.0" xmlns="http://www.w3.org/2000/svg"
 width="80px" height="80px" viewBox="0 0 157.000000 157.000000"
 preserveAspectRatio="xMidYMid meet">

<g transform="translate(0.000000,157.000000) scale(0.100000,-0.100000)"
fill="#0b6b00" stroke="none">
<path d="M756 1184 c-41 -21 -55 -43 -56 -87 0 -27 7 -45 25 -62 13 -14 29
-25 35 -25 6 0 10 -35 10 -92 l0 -92 -75 74 c-70 69 -75 77 -69 107 9 49 -3
81 -39 103 -45 28 -79 25 -116 -9 -44 -41 -43 -91 1 -133 29 -27 37 -30 78
-25 l45 5 78 -79 c42 -44 77 -76 77 -72 0 4 5 1 10 -7 5 -8 10 -79 10 -157 0
-136 1 -143 20 -143 19 0 20 7 20 137 l0 138 91 91 c86 87 94 92 125 87 75
-12 140 55 114 118 -16 38 -56 69 -89 69 -58 0 -110 -69 -92 -121 10 -29 7
-33 -67 -106 l-77 -77 -3 89 c-2 59 1 91 8 93 6 2 23 14 38 27 21 18 27 32 27
64 0 70 -70 116 -129 85z"/>
<path d="M442 673 c2 -90 6 -112 23 -131 36 -42 68 -52 170 -52 l95 0 0 94 c0
80 -3 98 -23 127 -35 53 -78 69 -180 69 l-89 0 4 -107z"/>
<path d="M935 764 c-68 -35 -79 -62 -77 -184 0 -41 1 -78 1 -82 1 -5 44 -8 98
-8 88 0 99 2 130 26 51 39 63 71 63 174 l0 90 -92 0 c-65 0 -102 -5 -123 -16z"/>
</g>
</svg>
